<?xml version="1.0" encoding="utf-8"?>
<!-- Generator: Adobe Illustrator 21.0.0, SVG Export Plug-In . SVG Version: 6.00 Build 0)  -->
<svg version="1.1" id="Layer_1" xmlns="http://www.w3.org/2000/svg" xmlns:xlink="http://www.w3.org/1999/xlink" x="0px" y="0px" width="316" height="316" 
	 viewBox="0 0 1024 1024" style="enable-background:new 0 0 1024 1024;" xml:space="preserve">
<style type="text/css">
	.st0{fill:url(#SVGID_1_);}
	.st1{fill:url(#SVGID_2_);}
</style>
<g>
	
		<linearGradient id="SVGID_1_" gradientUnits="userSpaceOnUse" x1="291.3236" y1="-59.6886" x2="1074.9117" y2="723.8994" gradientTransform="matrix(1 0 0 -1 -1.9997 1024.0001)">
		<stop  offset="0" style="stop-color:#58BBEA"/>
		<stop  offset="0.1917" style="stop-color:#5DB3E4"/>
		<stop  offset="0.4905" style="stop-color:#699DD4"/>
		<stop  offset="0.8574" style="stop-color:#7D79BA"/>
		<stop  offset="1" style="stop-color:#8669AE"/>
	</linearGradient>
	<path class="st0" d="M887.1,163.5c-4.2-4.5-8.4-9.1-12.9-13.5c-4.4-4.4-9-8.6-13.5-12.9L847.8,150l-13.5,13.5l-42.8,42.8l-1.4,1.4
		l-25,25l-43.3,43.3l0,0l-26.4,26.4c4.7,4.1,9.4,8.1,13.8,12.5s8.5,9.2,12.6,13.8C766.4,379.5,791,443.8,791,512
		c0,74.5-29,144.5-81.7,197.2c-52.7,52.7-122.8,81.7-197.3,81.7c-68.2,0-132.6-24.6-183.4-69.1l-7.2,7.2l-19.2,19.2
		c57.9,51.6,131.6,80,209.8,80c84.5,0,163.9-32.9,223.7-92.6c59.7-59.7,92.7-139.1,92.7-223.5c0-78.2-28.5-151.8-80.1-209.7
		l43.3-43.3c63,69.4,97.6,158.5,97.6,253c0,100.7-39.2,195.3-110.4,266.5C707.4,849.7,612.7,888.9,512,888.9
		c-94.5,0-183.6-34.5-253.1-97.5l-26.4,26.4c76.5,70.1,175.1,108.4,279.5,108.4c110.7,0,214.8-43.1,293-121.3
		c78.2-78.2,121.3-182.2,121.3-292.9c0-104.4-38.4-202.9-108.5-279.4l42.8-42.8l0,0c172.1,185.9,167.9,477.1-12.9,657.8
		c-89.7,89.7-209,139-335.9,139c-120.6,0-234.3-44.7-322.3-126.2L176.2,874l-12.9,12.9C258.3,975.4,381.4,1024,512,1024
		c136.8,0,265.5-53.3,362.3-150C1069.6,678.8,1073.8,364,887.1,163.5z"/>
	<g>
		
			<linearGradient id="SVGID_2_" gradientUnits="userSpaceOnUse" x1="-57.6637" y1="289.3419" x2="706.8762" y2="1053.8818" gradientTransform="matrix(1 0 0 -1 -1.9997 1024.0001)">
			<stop  offset="0" style="stop-color:#ABCB37"/>
			<stop  offset="0.2693" style="stop-color:#A9CB38"/>
			<stop  offset="0.424" style="stop-color:#A0C93B"/>
			<stop  offset="0.5496" style="stop-color:#92C741"/>
			<stop  offset="0.6598" style="stop-color:#7EC449"/>
			<stop  offset="0.7598" style="stop-color:#65C054"/>
			<stop  offset="0.8524" style="stop-color:#45BB61"/>
			<stop  offset="0.9376" style="stop-color:#20B570"/>
			<stop  offset="1" style="stop-color:#00B07D"/>
		</linearGradient>
		<path class="st1" d="M790.1,207.7l1.4-1.4C715,136.2,616.4,97.8,512,97.8c-110.7,0-214.8,43.1-293,121.3
			C140.7,297.4,97.6,401.4,97.6,512c0,104.4,38.4,202.9,108.5,279.4l-42.8,42.8C-8.8,648.2-4.6,357,176.2,176.4
			c89.7-89.7,209-139,335.9-139c120.6,0,234.3,44.7,322.3,126.2l-42.8,42.8l42.8-42.8l13.5-13.5l12.9-12.9C765.7,48.6,642.6,0,512,0
			C375.2,0,246.5,53.3,149.7,150C-45.6,345.2-49.8,660,136.9,860.5c4.2,4.5,8.4,9.1,12.9,13.5c4.4,4.4,9,8.6,13.5,12.9l12.9-12.9
			l13.5-13.5l42.8-42.8l26.4-26.4l43.3-43.3l19.2-19.2l7.2-7.2c-4.7-4.1-9.4-8.1-13.8-12.5c-4.4-4.4-8.5-9.2-12.6-13.8
			C257.6,644.5,233,580.2,233,512c0-74.5,29-144.5,81.7-197.2c52.7-52.7,122.8-81.7,197.3-81.7c68.3,0,132.6,24.6,183.4,69.1
			l26.4-26.4c-57.9-51.6-131.6-80.1-209.8-80.1c-84.5,0-163.9,32.9-223.7,92.6S195.7,427.5,195.7,512c0,78.2,28.5,151.8,80.1,209.7
			L232.5,765c-63-69.4-97.6-158.5-97.6-252.9c0-100.7,39.2-195.3,110.5-266.5S411.3,135.1,512,135.1c94.5,0,183.6,34.5,253.1,97.5
			l-43.3,43.3l0,0l43.3-43.3L790.1,207.7z"/>
	</g>
</g>
</svg>
